<?xml version="1.0" encoding="UTF-8" standalone="no"?>
<svg
   xmlns:dc="http://purl.org/dc/elements/1.1/"
   xmlns:cc="http://creativecommons.org/ns#"
   xmlns:rdf="http://www.w3.org/1999/02/22-rdf-syntax-ns#"
   xmlns:svg="http://www.w3.org/2000/svg"
   xmlns="http://www.w3.org/2000/svg"
   id="svg8"
   version="1.1"
   viewBox="0 0 23.800766 47.269924"
   height="47.269924mm"
   width="23.800766mm">
  <defs
     id="def-bone">
    <clipPath
       clipPathUnits="userSpaceOnUse"
       id="clipPath3734">
      <path
         d="M 0,200 H 500 V 0 H 0 Z"
         id="path3732" />
    </clipPath>
  </defs>
  <metadata
     id="metadata5">
    <rdf:RDF>
      <cc:Work
         rdf:about="">
        <dc:format>image/svg+xml</dc:format>
        <dc:type
           rdf:resource="http://purl.org/dc/dcmitype/StillImage" />
        <dc:title></dc:title>
      </cc:Work>
    </rdf:RDF>
  </metadata>
  <g
     transform="translate(-23.568927,-11.805514)"
     id="j-bone">
    <g
       id="g3726"
       transform="matrix(0.35277699,0,0,-0.35277777,21.153675,72.306613)">
      <g
         id="g3728">
        <g
           style="display:inline"
           id="g3730"
           clip-path="url(#clipPath3734)">
          <g
             style=""
             id="g3736"
             transform="translate(61.9764,166.3999)">
            <path
               d="m 0,0 c 0,0 -0.148,-0.666 -0.427,-1.914 -0.155,-0.618 -0.346,-1.381 -0.571,-2.278 -2.383,-9.499 -1.814,-19.832 0.487,-29.203 2.346,-9.557 5.62,-18.382 7.883,-27.949 2.152,-9.104 4.557,-18.161 4.943,-27.437 0.946,-22.786 -28.921,-51.94 -60.376,-35.107 -2.629,1.478 -4.351,2.868 -5.463,3.823 -1.082,0.988 -1.606,1.521 -1.606,1.521 0,0 0.81,-0.27 2.33,-0.777 1.477,-0.518 3.77,-1.08 6.56,-1.643 11.083,-2.239 22.07,0.695 29.499,7.09 l 0.363,0.312 0.181,0.157 0.046,0.039 c 0.261,0.195 -0.304,-0.221 -0.235,-0.166 l 0.063,0.073 c 0,0 1.009,1.157 1.01,1.158 10.279,11.778 7.071,26.274 3.865,39.298 -3.577,14.527 -5.855,29.307 -3.887,44.089 1.687,12.671 3.331,17.093 13.742,27.392 C -0.554,-0.529 0,0 0,0"
               style="fill-opacity:1;fill-rule:nonzero;stroke:none"
               id="path3738" />
          </g>
          <g
             style=""
             id="g3740"
             transform="translate(20.8924,48.7563)">
            <path
               d="m 0,0 c -0.513,0.029 -0.902,0.488 -0.86,1 l 0.151,1.817 C -0.667,3.315 -0.236,3.68 0.262,3.653 0.667,3.63 1.325,3.62 1.865,3.615 2.371,3.61 2.778,3.205 2.791,2.699 L 2.834,0.865 C 2.847,0.362 2.445,-0.05 1.943,-0.045 1.3,-0.04 0.473,-0.027 0,0"
               style="fill-opacity:1;fill-rule:nonzero;stroke:none"
               id="path3742" />
          </g>
          <g
             style=""
             id="g3744"
             transform="translate(26.9593,49.8804)">
            <path
               d="M 0,0 -0.232,1.825 C -0.294,2.315 0.049,2.752 0.537,2.831 1.065,2.916 1.588,3.017 2.101,3.132 2.583,3.24 3.056,2.962 3.181,2.484 L 3.648,0.705 C 3.779,0.208 3.48,-0.309 2.979,-0.422 2.345,-0.567 1.698,-0.691 1.044,-0.795 0.538,-0.875 0.064,-0.509 0,0"
               style="fill-opacity:1;fill-rule:nonzero;stroke:none"
               id="path3746" />
          </g>
          <g
             style=""
             id="g3748"
             transform="translate(15.7606,49.396)">
            <path
               d="m 0,0 c -0.618,0.118 -1.237,0.25 -1.854,0.396 -0.5,0.119 -0.802,0.635 -0.672,1.132 l 0.46,1.77 C -1.94,3.78 -1.455,4.063 -0.971,3.949 -0.434,3.823 0.105,3.708 0.644,3.604 1.132,3.511 1.456,3.055 1.374,2.564 L 1.073,0.76 C 0.988,0.253 0.504,-0.096 0,0"
               style="fill-opacity:1;fill-rule:nonzero;stroke:none"
               id="path3750" />
          </g>
          <g
             style=""
             id="g3752"
             transform="translate(10.1658,50.7749)">
            <path
               d="m 0,0 c -0.618,0.118 -1.237,0.25 -1.854,0.396 -0.499,0.119 -0.802,0.635 -0.672,1.132 l 0.461,1.77 C -1.94,3.78 -1.455,4.063 -0.971,3.949 -0.434,3.823 0.106,3.708 0.644,3.604 1.132,3.511 1.456,3.055 1.374,2.565 L 1.073,0.76 C 0.988,0.253 0.504,-0.096 0,0"
               style="fill-opacity:1;fill-rule:nonzero;stroke:none"
               id="path3754" />
          </g>
          <g
             style=""
             id="g3756"
             transform="translate(33.702,51.6074)">
            <path
               d="M 0,0 -0.686,1.708 C -0.869,2.166 -0.651,2.67 -0.201,2.872 0.276,3.085 0.746,3.315 1.205,3.56 1.639,3.792 2.17,3.654 2.419,3.229 L 3.35,1.641 C 3.61,1.197 3.459,0.615 3.006,0.372 2.421,0.057 1.822,-0.236 1.213,-0.506 0.743,-0.714 0.191,-0.478 0,0"
               style="fill-opacity:1;fill-rule:nonzero;stroke:none"
               id="path3758" />
          </g>
          <g
             style=""
             id="g3760"
             transform="translate(39.7537,55.0752)">
            <path
               d="m 0,0 -1.127,1.455 c -0.302,0.39 -0.234,0.933 0.143,1.25 0.4,0.335 0.793,0.686 1.175,1.052 0.357,0.341 0.911,0.351 1.264,0.007 L 2.774,2.48 C 3.142,2.122 3.15,1.522 2.78,1.167 2.301,0.706 1.808,0.264 1.304,-0.155 0.909,-0.484 0.315,-0.407 0,0"
               style="fill-opacity:1;fill-rule:nonzero;stroke:none"
               id="path3762" />
          </g>
          <g
             style=""
             id="g3764"
             transform="translate(44.5838,60.0659)">
            <path
               d="m 0,0 -1.331,1.034 c -0.413,0.321 -0.509,0.905 -0.213,1.338 0.249,0.365 0.543,0.805 0.793,1.197 0.276,0.434 0.836,0.582 1.293,0.344 L 2.117,3.093 C 2.577,2.854 2.763,2.271 2.5,1.824 2.307,1.493 1.823,0.786 1.418,0.209 1.093,-0.254 0.447,-0.348 0,0"
               style="fill-opacity:1;fill-rule:nonzero;stroke:none"
               id="path3766" />
          </g>
          <g
             style=""
             id="g3768"
             transform="translate(47.9598,66.2139)">
            <path
               d="m 0,0 -1.748,0.542 c -0.471,0.145 -0.728,0.634 -0.607,1.113 0.119,0.473 0.221,0.962 0.304,1.462 0.082,0.489 0.519,0.836 1.01,0.776 L 0.775,3.673 C 1.287,3.612 1.66,3.134 1.578,2.625 1.467,1.941 1.328,1.273 1.16,0.626 1.03,0.126 0.494,-0.153 0,0"
               style="fill-opacity:1;fill-rule:nonzero;stroke:none"
               id="path3770" />
          </g>
          <g
             style=""
             id="g3772"
             transform="translate(48.9622,73.1382)">
            <path
               d="m 0,0 h -2.021 c -0.413,0.001 -0.751,0.325 -0.765,0.739 -0.02,0.569 -0.05,1.33 -0.085,1.763 -0.04,0.499 0.318,0.945 0.816,0.996 l 1.821,0.187 C 0.273,3.737 0.732,3.36 0.774,2.851 0.813,2.374 0.847,1.539 0.87,0.896 0.887,0.404 0.492,0 0,0"
               style="fill-opacity:1;fill-rule:nonzero;stroke:none"
               id="path3774" />
          </g>
          <g
             style=""
             id="g3776"
             transform="translate(45.4486,80.4404)">
            <path
               d="m 0,0 c -0.098,0.554 -0.205,1.114 -0.318,1.681 -0.099,0.492 0.212,0.977 0.704,1.08 L 2.177,3.137 C 2.675,3.242 3.168,2.915 3.268,2.416 3.39,1.809 3.503,1.209 3.609,0.616 3.698,0.114 3.353,-0.359 2.85,-0.442 L 1.043,-0.738 C 0.549,-0.82 0.088,-0.493 0,0"
               style="fill-opacity:1;fill-rule:nonzero;stroke:none"
               id="path3778" />
          </g>
          <g
             style=""
             id="g3780"
             transform="translate(44.0604,86.9282)">
            <path
               d="m 0,0 c -0.135,0.562 -0.273,1.13 -0.415,1.704 -0.12,0.49 0.176,0.989 0.665,1.111 L 2.026,3.258 C 2.518,3.381 3.018,3.077 3.139,2.585 3.283,1.999 3.424,1.419 3.562,0.845 3.68,0.352 3.372,-0.138 2.878,-0.254 L 1.097,-0.673 C 0.606,-0.789 0.117,-0.49 0,0"
               style="fill-opacity:1;fill-rule:nonzero;stroke:none"
               id="path3782" />
          </g>
          <g
             style=""
             id="g3784"
             transform="translate(42.4412,93.4551)">
            <path
               d="M 0,0 C -0.142,0.569 -0.285,1.144 -0.428,1.724 -0.549,2.216 -0.25,2.725 0.243,2.845 L 2.021,3.279 C 2.51,3.399 3.006,3.088 3.126,2.599 3.269,2.022 3.411,1.452 3.553,0.886 3.675,0.396 3.375,-0.088 2.885,-0.21 L 1.109,-0.655 C 0.618,-0.778 0.123,-0.491 0,0"
               style="fill-opacity:1;fill-rule:nonzero;stroke:none"
               id="path3786" />
          </g>
          <g
             style=""
             id="g3788"
             transform="translate(40.8499,100.0581)">
            <path
               d="m 0,0 c -0.132,0.577 -0.262,1.158 -0.39,1.745 -0.109,0.497 0.209,1 0.706,1.106 L 2.107,3.232 C 2.598,3.337 3.08,3.016 3.187,2.525 3.312,1.95 3.44,1.379 3.569,0.813 3.681,0.324 3.376,-0.152 2.887,-0.266 L 1.104,-0.681 C 0.609,-0.796 0.113,-0.496 0,0"
               style="fill-opacity:1;fill-rule:nonzero;stroke:none"
               id="path3790" />
          </g>
          <g
             style=""
             id="g3792"
             transform="translate(39.4603,106.7441)">
            <path
               d="m 0,0 c -0.108,0.588 -0.214,1.182 -0.316,1.78 -0.085,0.5 0.256,0.979 0.757,1.06 L 2.248,3.135 C 2.744,3.216 3.21,2.878 3.295,2.382 3.393,1.809 3.494,1.24 3.598,0.675 3.689,0.181 3.366,-0.292 2.872,-0.386 L 1.074,-0.729 C 0.575,-0.825 0.092,-0.5 0,0"
               style="fill-opacity:1;fill-rule:nonzero;stroke:none"
               id="path3794" />
          </g>
          <g
             style=""
             id="g3796"
             transform="translate(38.4017,113.5161)">
            <path
               d="M 0,0 C -0.076,0.597 -0.146,1.199 -0.213,1.804 -0.268,2.31 0.104,2.767 0.609,2.817 L 2.431,3 C 2.931,3.05 3.375,2.685 3.429,2.185 3.491,1.611 3.559,1.04 3.63,0.474 3.692,-0.025 3.345,-0.478 2.847,-0.544 L 1.033,-0.789 C 0.53,-0.856 0.064,-0.504 0,0"
               style="fill-opacity:1;fill-rule:nonzero;stroke:none"
               id="path3798" />
          </g>
          <g
             style=""
             id="g3800"
             transform="translate(37.7659,120.3579)">
            <path
               d="M 0,0 C -0.035,0.603 -0.065,1.21 -0.089,1.821 -0.109,2.33 0.294,2.76 0.803,2.775 l 1.83,0.053 C 3.135,2.843 3.55,2.447 3.57,1.946 3.592,1.371 3.62,0.799 3.653,0.231 3.682,-0.27 3.307,-0.698 2.806,-0.732 L 0.98,-0.856 C 0.472,-0.891 0.03,-0.508 0,0"
               style="fill-opacity:1;fill-rule:nonzero;stroke:none"
               id="path3802" />
          </g>
          <g
             style=""
             id="g3804"
             transform="translate(40.3626,126.3027)">
            <path
               d="m 0,0 -1.831,0.011 c -0.509,0.004 -0.922,0.419 -0.914,0.928 0.01,0.604 0.026,1.212 0.049,1.825 0.018,0.508 0.454,0.907 0.962,0.883 L 0.095,3.561 C 0.596,3.537 0.979,3.111 0.961,2.61 0.94,2.036 0.925,1.465 0.916,0.898 0.908,0.396 0.501,-0.003 0,0"
               style="fill-opacity:1;fill-rule:nonzero;stroke:none"
               id="path3806" />
          </g>
          <g
             style=""
             id="g3808"
             transform="translate(40.66,132.9741)">
            <path
               d="m 0,0 -1.823,0.152 c -0.508,0.043 -0.888,0.488 -0.841,0.995 0.057,0.603 0.121,1.208 0.19,1.818 0.059,0.506 0.524,0.87 1.03,0.806 L 0.371,3.543 C 0.869,3.48 1.218,3.025 1.161,2.527 1.095,1.956 1.036,1.388 0.982,0.824 0.936,0.324 0.5,-0.042 0,0"
               style="fill-opacity:1;fill-rule:nonzero;stroke:none"
               id="path3810" />
          </g>
          <g
             style=""
             id="g3812"
             transform="translate(41.2977,139.7764)">
            <path
               d="m 0,0 -1.806,0.295 c -0.503,0.082 -0.847,0.556 -0.759,1.057 0.103,0.596 0.213,1.194 0.331,1.797 0.097,0.499 0.589,0.826 1.088,0.724 L 0.647,3.503 C 1.138,3.402 1.452,2.921 1.355,2.429 1.245,1.864 1.142,1.303 1.044,0.744 0.958,0.25 0.495,-0.081 0,0"
               style="fill-opacity:1;fill-rule:nonzero;stroke:none"
               id="path3814" />
          </g>
          <g
             style=""
             id="g3816"
             transform="translate(42.8392,146.8867)">
            <path
               d="m 0,0 -1.735,0.586 c -0.49,0.165 -0.752,0.69 -0.571,1.174 0.19,0.508 0.432,1.115 0.733,1.803 0.204,0.466 0.759,0.67 1.221,0.456 L 1.308,3.248 C 1.755,3.04 1.962,2.513 1.765,2.061 1.513,1.481 1.308,0.97 1.145,0.538 0.971,0.075 0.468,-0.158 0,0"
               style="fill-opacity:1;fill-rule:nonzero;stroke:none"
               id="path3818" />
          </g>
          <g
             style=""
             id="g3820"
             transform="translate(45.5535,153.2881)">
            <path
               d="m 0,0 -1.596,0.895 c -0.447,0.251 -0.611,0.821 -0.352,1.263 0.317,0.539 0.646,1.075 0.986,1.605 0.277,0.431 0.862,0.547 1.288,0.261 L 1.846,3.006 C 2.26,2.729 2.369,2.175 2.1,1.755 1.799,1.287 1.508,0.812 1.228,0.336 0.975,-0.093 0.435,-0.244 0,0"
               style="fill-opacity:1;fill-rule:nonzero;stroke:none"
               id="path3822" />
          </g>
          <g
             style=""
             id="g3824"
             transform="translate(49.203,158.9468)">
            <path
               d="m 0,0 -1.447,1.119 c -0.406,0.313 -0.483,0.902 -0.162,1.301 0.391,0.487 0.793,0.969 1.203,1.442 0.336,0.387 0.93,0.416 1.31,0.073 L 2.263,2.709 C 2.634,2.375 2.663,1.813 2.336,1.436 1.972,1.015 1.614,0.587 1.266,0.154 0.953,-0.234 0.395,-0.305 0,0"
               style="fill-opacity:1;fill-rule:nonzero;stroke:none"
               id="path3826" />
          </g>
          <g
             style=""
             id="g3828"
             transform="translate(53.6102,163.7358)">
            <path
               d="M 0,0 -1.276,1.312 C -1.633,1.678 -1.627,2.272 -1.254,2.623 -0.798,3.05 -0.333,3.47 0.137,3.88 0.523,4.217 1.115,4.164 1.444,3.771 L 2.62,2.369 C 2.941,1.987 2.892,1.426 2.516,1.098 2.097,0.732 1.682,0.357 1.275,-0.024 0.912,-0.365 0.348,-0.357 0,0"
               style="fill-opacity:1;fill-rule:nonzero;stroke:none"
               id="path3830" />
          </g>
          <g
             style=""
             id="g3832"
             transform="translate(57.9583,167.6187)">
            <path
               d="M 0,0 -0.976,1.548 C -1.249,1.981 -1.119,2.561 -0.681,2.826 -0.146,3.149 0.396,3.463 0.941,3.767 1.389,4.016 1.957,3.84 2.197,3.388 L 3.056,1.772 C 3.29,1.332 3.125,0.793 2.69,0.55 2.203,0.28 1.72,-0.001 1.243,-0.289 0.815,-0.547 0.266,-0.422 0,0"
               style="fill-opacity:1;fill-rule:nonzero;stroke:none"
               id="path3834" />
          </g>
          <g
             id="g3836"
             transform="translate(95.7694,105.8691)" />
        </g>
      </g>
    </g>
  </g>
</svg>
