<?xml version="1.0" encoding="UTF-8" standalone="no"?>
<!-- Created with Inkscape (http://www.inkscape.org/) -->

<svg
   xmlns:dc="http://purl.org/dc/elements/1.1/"
   xmlns:cc="http://creativecommons.org/ns#"
   xmlns:rdf="http://www.w3.org/1999/02/22-rdf-syntax-ns#"
   xmlns:svg="http://www.w3.org/2000/svg"
   xmlns="http://www.w3.org/2000/svg"
   xmlns:sodipodi="http://sodipodi.sourceforge.net/DTD/sodipodi-0.dtd"
   xmlns:inkscape="http://www.inkscape.org/namespaces/inkscape"
   width="210mm"
   height="297mm"
   viewBox="0 0 210 297"
   version="1.1"
   id="svg8"
   inkscape:version="0.92.2 5c3e80d, 2017-08-06"
   sodipodi:docname="journey-chiropractic-logos.svg">
  <defs
     id="defs2">
    <clipPath
       id="clipPath3734"
       clipPathUnits="userSpaceOnUse">
      <path
         inkscape:connector-curvature="0"
         id="path3732"
         d="M 0,200 H 500 V 0 H 0 Z" />
    </clipPath>
  </defs>
  <sodipodi:namedview
     id="base"
     pagecolor="#ffffff"
     bordercolor="#666666"
     borderopacity="1.0"
     inkscape:pageopacity="0.0"
     inkscape:pageshadow="2"
     inkscape:zoom="0.35"
     inkscape:cx="-204.28571"
     inkscape:cy="902.85714"
     inkscape:document-units="mm"
     inkscape:current-layer="layer1"
     showgrid="false"
     inkscape:window-width="1280"
     inkscape:window-height="755"
     inkscape:window-x="0"
     inkscape:window-y="1"
     inkscape:window-maximized="1" />
  <metadata
     id="metadata5">
    <rdf:RDF>
      <cc:Work
         rdf:about="">
        <dc:format>image/svg+xml</dc:format>
        <dc:type
           rdf:resource="http://purl.org/dc/dcmitype/StillImage" />
        <dc:title></dc:title>
      </cc:Work>
    </rdf:RDF>
  </metadata>
  <g
     inkscape:label="Layer 1"
     inkscape:groupmode="layer"
     id="layer1">
    <g
       transform="matrix(0.35277777,0,0,-0.35277777,21.153669,72.306613)"
       inkscape:label="Journey Chiropractic Clinic Logo"
       id="g3726">
      <g
         id="g3728">
        <g
           clip-path="url(#clipPath3734)"
           id="g3730">
          <g
             transform="translate(61.9764,166.3999)"
             id="g3736">
            <path
               inkscape:connector-curvature="0"
               id="path3738"
               style="fill:#331742;fill-opacity:1;fill-rule:nonzero;stroke:none"
               d="m 0,0 c 0,0 -0.148,-0.666 -0.427,-1.914 -0.155,-0.618 -0.346,-1.381 -0.571,-2.278 -2.383,-9.499 -1.814,-19.832 0.487,-29.203 2.346,-9.557 5.62,-18.382 7.883,-27.949 2.152,-9.104 4.557,-18.161 4.943,-27.437 0.946,-22.786 -28.921,-51.94 -60.376,-35.107 -2.629,1.478 -4.351,2.868 -5.463,3.823 -1.082,0.988 -1.606,1.521 -1.606,1.521 0,0 0.81,-0.27 2.33,-0.777 1.477,-0.518 3.77,-1.08 6.56,-1.643 11.083,-2.239 22.07,0.695 29.499,7.09 l 0.363,0.312 0.181,0.157 0.046,0.039 c 0.261,0.195 -0.304,-0.221 -0.235,-0.166 l 0.063,0.073 c 0,0 1.009,1.157 1.01,1.158 10.279,11.778 7.071,26.274 3.865,39.298 -3.577,14.527 -5.855,29.307 -3.887,44.089 1.687,12.671 3.331,17.093 13.742,27.392 C -0.554,-0.529 0,0 0,0" />
          </g>
          <g
             transform="translate(20.8924,48.7563)"
             id="g3740">
            <path
               inkscape:connector-curvature="0"
               id="path3742"
               style="fill:#331742;fill-opacity:1;fill-rule:nonzero;stroke:none"
               d="m 0,0 c -0.513,0.029 -0.902,0.488 -0.86,1 l 0.151,1.817 C -0.667,3.315 -0.236,3.68 0.262,3.653 0.667,3.63 1.325,3.62 1.865,3.615 2.371,3.61 2.778,3.205 2.791,2.699 L 2.834,0.865 C 2.847,0.362 2.445,-0.05 1.943,-0.045 1.3,-0.04 0.473,-0.027 0,0" />
          </g>
          <g
             transform="translate(26.9593,49.8804)"
             id="g3744">
            <path
               inkscape:connector-curvature="0"
               id="path3746"
               style="fill:#331742;fill-opacity:1;fill-rule:nonzero;stroke:none"
               d="M 0,0 -0.232,1.825 C -0.294,2.315 0.049,2.752 0.537,2.831 1.065,2.916 1.588,3.017 2.101,3.132 2.583,3.24 3.056,2.962 3.181,2.484 L 3.648,0.705 C 3.779,0.208 3.48,-0.309 2.979,-0.422 2.345,-0.567 1.698,-0.691 1.044,-0.795 0.538,-0.875 0.064,-0.509 0,0" />
          </g>
          <g
             transform="translate(15.7606,49.396)"
             id="g3748">
            <path
               inkscape:connector-curvature="0"
               id="path3750"
               style="fill:#331742;fill-opacity:1;fill-rule:nonzero;stroke:none"
               d="m 0,0 c -0.618,0.118 -1.237,0.25 -1.854,0.396 -0.5,0.119 -0.802,0.635 -0.672,1.132 l 0.46,1.77 C -1.94,3.78 -1.455,4.063 -0.971,3.949 -0.434,3.823 0.105,3.708 0.644,3.604 1.132,3.511 1.456,3.055 1.374,2.564 L 1.073,0.76 C 0.988,0.253 0.504,-0.096 0,0" />
          </g>
          <g
             transform="translate(10.1658,50.7749)"
             id="g3752">
            <path
               inkscape:connector-curvature="0"
               id="path3754"
               style="fill:#331742;fill-opacity:1;fill-rule:nonzero;stroke:none"
               d="m 0,0 c -0.618,0.118 -1.237,0.25 -1.854,0.396 -0.499,0.119 -0.802,0.635 -0.672,1.132 l 0.461,1.77 C -1.94,3.78 -1.455,4.063 -0.971,3.949 -0.434,3.823 0.106,3.708 0.644,3.604 1.132,3.511 1.456,3.055 1.374,2.565 L 1.073,0.76 C 0.988,0.253 0.504,-0.096 0,0" />
          </g>
          <g
             transform="translate(33.702,51.6074)"
             id="g3756">
            <path
               inkscape:connector-curvature="0"
               id="path3758"
               style="fill:#331742;fill-opacity:1;fill-rule:nonzero;stroke:none"
               d="M 0,0 -0.686,1.708 C -0.869,2.166 -0.651,2.67 -0.201,2.872 0.276,3.085 0.746,3.315 1.205,3.56 1.639,3.792 2.17,3.654 2.419,3.229 L 3.35,1.641 C 3.61,1.197 3.459,0.615 3.006,0.372 2.421,0.057 1.822,-0.236 1.213,-0.506 0.743,-0.714 0.191,-0.478 0,0" />
          </g>
          <g
             transform="translate(39.7537,55.0752)"
             id="g3760">
            <path
               inkscape:connector-curvature="0"
               id="path3762"
               style="fill:#331742;fill-opacity:1;fill-rule:nonzero;stroke:none"
               d="m 0,0 -1.127,1.455 c -0.302,0.39 -0.234,0.933 0.143,1.25 0.4,0.335 0.793,0.686 1.175,1.052 0.357,0.341 0.911,0.351 1.264,0.007 L 2.774,2.48 C 3.142,2.122 3.15,1.522 2.78,1.167 2.301,0.706 1.808,0.264 1.304,-0.155 0.909,-0.484 0.315,-0.407 0,0" />
          </g>
          <g
             transform="translate(44.5838,60.0659)"
             id="g3764">
            <path
               inkscape:connector-curvature="0"
               id="path3766"
               style="fill:#331742;fill-opacity:1;fill-rule:nonzero;stroke:none"
               d="m 0,0 -1.331,1.034 c -0.413,0.321 -0.509,0.905 -0.213,1.338 0.249,0.365 0.543,0.805 0.793,1.197 0.276,0.434 0.836,0.582 1.293,0.344 L 2.117,3.093 C 2.577,2.854 2.763,2.271 2.5,1.824 2.307,1.493 1.823,0.786 1.418,0.209 1.093,-0.254 0.447,-0.348 0,0" />
          </g>
          <g
             transform="translate(47.9598,66.2139)"
             id="g3768">
            <path
               inkscape:connector-curvature="0"
               id="path3770"
               style="fill:#331742;fill-opacity:1;fill-rule:nonzero;stroke:none"
               d="m 0,0 -1.748,0.542 c -0.471,0.145 -0.728,0.634 -0.607,1.113 0.119,0.473 0.221,0.962 0.304,1.462 0.082,0.489 0.519,0.836 1.01,0.776 L 0.775,3.673 C 1.287,3.612 1.66,3.134 1.578,2.625 1.467,1.941 1.328,1.273 1.16,0.626 1.03,0.126 0.494,-0.153 0,0" />
          </g>
          <g
             transform="translate(48.9622,73.1382)"
             id="g3772">
            <path
               inkscape:connector-curvature="0"
               id="path3774"
               style="fill:#331742;fill-opacity:1;fill-rule:nonzero;stroke:none"
               d="m 0,0 h -2.021 c -0.413,0.001 -0.751,0.325 -0.765,0.739 -0.02,0.569 -0.05,1.33 -0.085,1.763 -0.04,0.499 0.318,0.945 0.816,0.996 l 1.821,0.187 C 0.273,3.737 0.732,3.36 0.774,2.851 0.813,2.374 0.847,1.539 0.87,0.896 0.887,0.404 0.492,0 0,0" />
          </g>
          <g
             transform="translate(45.4486,80.4404)"
             id="g3776">
            <path
               inkscape:connector-curvature="0"
               id="path3778"
               style="fill:#331742;fill-opacity:1;fill-rule:nonzero;stroke:none"
               d="m 0,0 c -0.098,0.554 -0.205,1.114 -0.318,1.681 -0.099,0.492 0.212,0.977 0.704,1.08 L 2.177,3.137 C 2.675,3.242 3.168,2.915 3.268,2.416 3.39,1.809 3.503,1.209 3.609,0.616 3.698,0.114 3.353,-0.359 2.85,-0.442 L 1.043,-0.738 C 0.549,-0.82 0.088,-0.493 0,0" />
          </g>
          <g
             transform="translate(44.0604,86.9282)"
             id="g3780">
            <path
               inkscape:connector-curvature="0"
               id="path3782"
               style="fill:#331742;fill-opacity:1;fill-rule:nonzero;stroke:none"
               d="m 0,0 c -0.135,0.562 -0.273,1.13 -0.415,1.704 -0.12,0.49 0.176,0.989 0.665,1.111 L 2.026,3.258 C 2.518,3.381 3.018,3.077 3.139,2.585 3.283,1.999 3.424,1.419 3.562,0.845 3.68,0.352 3.372,-0.138 2.878,-0.254 L 1.097,-0.673 C 0.606,-0.789 0.117,-0.49 0,0" />
          </g>
          <g
             transform="translate(42.4412,93.4551)"
             id="g3784">
            <path
               inkscape:connector-curvature="0"
               id="path3786"
               style="fill:#331742;fill-opacity:1;fill-rule:nonzero;stroke:none"
               d="M 0,0 C -0.142,0.569 -0.285,1.144 -0.428,1.724 -0.549,2.216 -0.25,2.725 0.243,2.845 L 2.021,3.279 C 2.51,3.399 3.006,3.088 3.126,2.599 3.269,2.022 3.411,1.452 3.553,0.886 3.675,0.396 3.375,-0.088 2.885,-0.21 L 1.109,-0.655 C 0.618,-0.778 0.123,-0.491 0,0" />
          </g>
          <g
             transform="translate(40.8499,100.0581)"
             id="g3788">
            <path
               inkscape:connector-curvature="0"
               id="path3790"
               style="fill:#331742;fill-opacity:1;fill-rule:nonzero;stroke:none"
               d="m 0,0 c -0.132,0.577 -0.262,1.158 -0.39,1.745 -0.109,0.497 0.209,1 0.706,1.106 L 2.107,3.232 C 2.598,3.337 3.08,3.016 3.187,2.525 3.312,1.95 3.44,1.379 3.569,0.813 3.681,0.324 3.376,-0.152 2.887,-0.266 L 1.104,-0.681 C 0.609,-0.796 0.113,-0.496 0,0" />
          </g>
          <g
             transform="translate(39.4603,106.7441)"
             id="g3792">
            <path
               inkscape:connector-curvature="0"
               id="path3794"
               style="fill:#331742;fill-opacity:1;fill-rule:nonzero;stroke:none"
               d="m 0,0 c -0.108,0.588 -0.214,1.182 -0.316,1.78 -0.085,0.5 0.256,0.979 0.757,1.06 L 2.248,3.135 C 2.744,3.216 3.21,2.878 3.295,2.382 3.393,1.809 3.494,1.24 3.598,0.675 3.689,0.181 3.366,-0.292 2.872,-0.386 L 1.074,-0.729 C 0.575,-0.825 0.092,-0.5 0,0" />
          </g>
          <g
             transform="translate(38.4017,113.5161)"
             id="g3796">
            <path
               inkscape:connector-curvature="0"
               id="path3798"
               style="fill:#331742;fill-opacity:1;fill-rule:nonzero;stroke:none"
               d="M 0,0 C -0.076,0.597 -0.146,1.199 -0.213,1.804 -0.268,2.31 0.104,2.767 0.609,2.817 L 2.431,3 C 2.931,3.05 3.375,2.685 3.429,2.185 3.491,1.611 3.559,1.04 3.63,0.474 3.692,-0.025 3.345,-0.478 2.847,-0.544 L 1.033,-0.789 C 0.53,-0.856 0.064,-0.504 0,0" />
          </g>
          <g
             transform="translate(37.7659,120.3579)"
             id="g3800">
            <path
               inkscape:connector-curvature="0"
               id="path3802"
               style="fill:#331742;fill-opacity:1;fill-rule:nonzero;stroke:none"
               d="M 0,0 C -0.035,0.603 -0.065,1.21 -0.089,1.821 -0.109,2.33 0.294,2.76 0.803,2.775 l 1.83,0.053 C 3.135,2.843 3.55,2.447 3.57,1.946 3.592,1.371 3.62,0.799 3.653,0.231 3.682,-0.27 3.307,-0.698 2.806,-0.732 L 0.98,-0.856 C 0.472,-0.891 0.03,-0.508 0,0" />
          </g>
          <g
             transform="translate(40.3626,126.3027)"
             id="g3804">
            <path
               inkscape:connector-curvature="0"
               id="path3806"
               style="fill:#331742;fill-opacity:1;fill-rule:nonzero;stroke:none"
               d="m 0,0 -1.831,0.011 c -0.509,0.004 -0.922,0.419 -0.914,0.928 0.01,0.604 0.026,1.212 0.049,1.825 0.018,0.508 0.454,0.907 0.962,0.883 L 0.095,3.561 C 0.596,3.537 0.979,3.111 0.961,2.61 0.94,2.036 0.925,1.465 0.916,0.898 0.908,0.396 0.501,-0.003 0,0" />
          </g>
          <g
             transform="translate(40.66,132.9741)"
             id="g3808">
            <path
               inkscape:connector-curvature="0"
               id="path3810"
               style="fill:#331742;fill-opacity:1;fill-rule:nonzero;stroke:none"
               d="m 0,0 -1.823,0.152 c -0.508,0.043 -0.888,0.488 -0.841,0.995 0.057,0.603 0.121,1.208 0.19,1.818 0.059,0.506 0.524,0.87 1.03,0.806 L 0.371,3.543 C 0.869,3.48 1.218,3.025 1.161,2.527 1.095,1.956 1.036,1.388 0.982,0.824 0.936,0.324 0.5,-0.042 0,0" />
          </g>
          <g
             transform="translate(41.2977,139.7764)"
             id="g3812">
            <path
               inkscape:connector-curvature="0"
               id="path3814"
               style="fill:#331742;fill-opacity:1;fill-rule:nonzero;stroke:none"
               d="m 0,0 -1.806,0.295 c -0.503,0.082 -0.847,0.556 -0.759,1.057 0.103,0.596 0.213,1.194 0.331,1.797 0.097,0.499 0.589,0.826 1.088,0.724 L 0.647,3.503 C 1.138,3.402 1.452,2.921 1.355,2.429 1.245,1.864 1.142,1.303 1.044,0.744 0.958,0.25 0.495,-0.081 0,0" />
          </g>
          <g
             transform="translate(42.8392,146.8867)"
             id="g3816">
            <path
               inkscape:connector-curvature="0"
               id="path3818"
               style="fill:#331742;fill-opacity:1;fill-rule:nonzero;stroke:none"
               d="m 0,0 -1.735,0.586 c -0.49,0.165 -0.752,0.69 -0.571,1.174 0.19,0.508 0.432,1.115 0.733,1.803 0.204,0.466 0.759,0.67 1.221,0.456 L 1.308,3.248 C 1.755,3.04 1.962,2.513 1.765,2.061 1.513,1.481 1.308,0.97 1.145,0.538 0.971,0.075 0.468,-0.158 0,0" />
          </g>
          <g
             transform="translate(45.5535,153.2881)"
             id="g3820">
            <path
               inkscape:connector-curvature="0"
               id="path3822"
               style="fill:#331742;fill-opacity:1;fill-rule:nonzero;stroke:none"
               d="m 0,0 -1.596,0.895 c -0.447,0.251 -0.611,0.821 -0.352,1.263 0.317,0.539 0.646,1.075 0.986,1.605 0.277,0.431 0.862,0.547 1.288,0.261 L 1.846,3.006 C 2.26,2.729 2.369,2.175 2.1,1.755 1.799,1.287 1.508,0.812 1.228,0.336 0.975,-0.093 0.435,-0.244 0,0" />
          </g>
          <g
             transform="translate(49.203,158.9468)"
             id="g3824">
            <path
               inkscape:connector-curvature="0"
               id="path3826"
               style="fill:#331742;fill-opacity:1;fill-rule:nonzero;stroke:none"
               d="m 0,0 -1.447,1.119 c -0.406,0.313 -0.483,0.902 -0.162,1.301 0.391,0.487 0.793,0.969 1.203,1.442 0.336,0.387 0.93,0.416 1.31,0.073 L 2.263,2.709 C 2.634,2.375 2.663,1.813 2.336,1.436 1.972,1.015 1.614,0.587 1.266,0.154 0.953,-0.234 0.395,-0.305 0,0" />
          </g>
          <g
             transform="translate(53.6102,163.7358)"
             id="g3828">
            <path
               inkscape:connector-curvature="0"
               id="path3830"
               style="fill:#331742;fill-opacity:1;fill-rule:nonzero;stroke:none"
               d="M 0,0 -1.276,1.312 C -1.633,1.678 -1.627,2.272 -1.254,2.623 -0.798,3.05 -0.333,3.47 0.137,3.88 0.523,4.217 1.115,4.164 1.444,3.771 L 2.62,2.369 C 2.941,1.987 2.892,1.426 2.516,1.098 2.097,0.732 1.682,0.357 1.275,-0.024 0.912,-0.365 0.348,-0.357 0,0" />
          </g>
          <g
             transform="translate(57.9583,167.6187)"
             id="g3832">
            <path
               inkscape:connector-curvature="0"
               id="path3834"
               style="fill:#331742;fill-opacity:1;fill-rule:nonzero;stroke:none"
               d="M 0,0 -0.976,1.548 C -1.249,1.981 -1.119,2.561 -0.681,2.826 -0.146,3.149 0.396,3.463 0.941,3.767 1.389,4.016 1.957,3.84 2.197,3.388 L 3.056,1.772 C 3.29,1.332 3.125,0.793 2.69,0.55 2.203,0.28 1.72,-0.001 1.243,-0.289 0.815,-0.547 0.266,-0.422 0,0" />
          </g>
          <g
             transform="translate(95.7694,105.8691)"
             id="g3836">
            <path
               inkscape:connector-curvature="0"
               id="path3838"
               style="fill:#331742;fill-opacity:1;fill-rule:nonzero;stroke:none"
               d="m 0,0 c 0,-7.919 1.712,-14.189 5.138,-18.809 3.426,-4.62 8.014,-6.929 13.766,-6.929 5.751,0 10.339,2.309 13.765,6.929 3.425,4.62 5.139,10.89 5.139,18.809 0,7.921 -1.714,14.19 -5.139,18.811 -3.426,4.62 -8.014,6.929 -13.765,6.929 -5.752,0 -10.34,-2.309 -13.766,-6.929 C 1.712,14.19 0,7.921 0,0 m -14.426,0 c 0,9.051 3.032,16.231 9.1,21.544 6.064,5.311 14.142,7.968 24.23,7.968 10.089,0 18.18,-2.657 24.278,-7.968 C 49.278,16.231 52.328,9.051 52.328,0 c 0,-9.051 -3.05,-16.232 -9.146,-21.544 -6.098,-5.311 -14.176,-7.966 -24.231,-7.966 -10.058,0 -18.134,2.655 -24.231,7.966 -6.097,5.312 -9.146,12.493 -9.146,21.544" />
          </g>
          <g
             transform="translate(220.223,133.2119)"
             id="g3840">
            <path
               inkscape:connector-curvature="0"
               id="path3842"
               style="fill:#331742;fill-opacity:1;fill-rule:nonzero;stroke:none"
               d="m 0,0 h -1.32 c -1.196,0 -2.201,-0.362 -3.017,-1.084 -0.818,-0.724 -1.259,-1.649 -1.321,-2.781 v -31.208 c 0,-6.789 -2.074,-12.116 -6.221,-15.981 -4.15,-3.865 -10.326,-5.799 -18.527,-5.799 -8.203,0 -14.583,1.885 -19.14,5.657 -4.558,3.772 -6.836,9.082 -6.836,15.934 V -3.96 c 0,1.131 -0.424,2.075 -1.273,2.828 C -58.504,-0.377 -59.525,0 -60.719,0 h -1.32 v 0.943 h 24.797 V 0 h -1.321 c -1.195,0 -2.2,-0.377 -3.017,-1.132 -0.817,-0.753 -1.225,-1.697 -1.225,-2.828 v -30.643 c 0,-5.783 1.334,-10.308 4.007,-13.576 2.672,-3.269 6.425,-4.902 11.267,-4.902 4.839,0 8.657,1.539 11.455,4.62 2.796,3.078 4.197,7.354 4.197,12.822 V -3.96 c -0.064,1.193 -0.504,2.152 -1.321,2.876 C -14.018,-0.362 -15.023,0 -16.217,0 h -1.226 V 0.943 H 0 Z" />
          </g>
          <g
             transform="translate(253.41,130.2896)"
             id="g3844">
            <path
               inkscape:connector-curvature="0"
               id="path3846"
               style="fill:#331742;fill-opacity:1;fill-rule:nonzero;stroke:none"
               d="m 0,0 h -3.017 v -46.766 c 0,-1.507 0.519,-2.718 1.556,-3.63 1.037,-0.911 2.216,-1.366 3.536,-1.366 h 1.037 v -0.943 h -25.928 v 0.943 h 1.131 c 1.382,0 2.56,0.471 3.536,1.414 0.973,0.943 1.462,2.105 1.462,3.489 V -1.98 c 0,1.381 -0.489,2.545 -1.462,3.488 -0.976,0.943 -2.121,1.414 -3.442,1.414 h -1.225 V 3.866 H 6.129 c 5.657,0 10.403,-1.1 14.236,-3.301 4.275,-2.451 6.412,-6.505 6.412,-12.162 0,-3.647 -1.1,-6.929 -3.299,-9.853 -2.201,-2.922 -5.469,-4.7 -9.807,-5.326 1.698,-0.566 3.378,-1.636 5.045,-3.206 1.664,-1.573 3,-3.176 4.007,-4.809 2.01,-3.583 4.116,-6.869 6.318,-9.853 2.199,-2.986 3.974,-4.919 5.326,-5.798 1.351,-0.882 3.001,-1.32 4.95,-1.32 v -0.943 h -7.92 c -5.218,0 -9.225,0.628 -12.021,1.885 -2.797,1.257 -5.295,3.645 -7.496,7.166 -3.393,5.405 -5.5,9.68 -6.317,12.823 -0.754,1.886 -1.649,3.3 -2.686,4.243 -1.037,0.942 -2.027,1.477 -2.971,1.603 v 0.754 h 2.358 c 5.341,0.062 8.611,3.205 9.804,9.428 0.251,0.943 0.378,1.759 0.378,2.451 0,0.691 -0.032,1.65 -0.094,2.877 -0.063,1.225 -0.457,2.607 -1.179,4.147 -0.722,1.54 -1.649,2.656 -2.781,3.348 -1.949,1.193 -3.96,1.822 -6.035,1.885 C 1.665,-0.033 0.88,0 0,0" />
          </g>
          <g
             transform="translate(338.4539,134.1553)"
             id="g3848">
            <path
               inkscape:connector-curvature="0"
               id="path3850"
               style="fill:#331742;fill-opacity:1;fill-rule:nonzero;stroke:none"
               d="M 0,0 H 26.493 V -0.943 H 24.89 c -1.446,0 -2.656,-0.441 -3.63,-1.32 -0.974,-0.881 -1.493,-2.013 -1.556,-3.394 V -46.86 c 0,-3.898 0.251,-7.102 0.755,-9.617 l 0.188,-1.319 h -0.848 l -43.276,38.184 v -31.207 c 0.062,-1.384 0.581,-2.531 1.556,-3.442 0.973,-0.912 2.183,-1.366 3.629,-1.366 h 1.604 v -0.944 h -26.4 v 0.944 h 1.508 c 1.446,0 2.672,0.454 3.678,1.366 1.004,0.911 1.508,2.058 1.508,3.442 v 41.484 c 0,3.772 -0.252,6.884 -0.754,9.335 l -0.189,1.319 0.849,-0.093 43.182,-37.997 v 31.019 c 0,1.382 -0.487,2.53 -1.461,3.441 -0.976,0.911 -2.186,1.368 -3.63,1.368 H 0 Z" />
          </g>
          <g
             transform="translate(419.16,77.5845)"
             id="g3852">
            <path
               inkscape:connector-curvature="0"
               id="path3854"
               style="fill:#331742;fill-opacity:1;fill-rule:nonzero;stroke:none"
               d="m 0,0 h -44.407 v 0.943 h 1.132 c 1.444,0 2.654,0.472 3.63,1.414 0.974,0.943 1.491,2.105 1.555,3.489 v 44.879 c -0.064,1.381 -0.581,2.545 -1.555,3.488 -0.976,0.943 -2.186,1.414 -3.63,1.414 h -1.132 v 0.944 h 33.188 c 1.697,0 3.551,0.156 5.562,0.471 2.011,0.313 3.427,0.628 4.243,0.943 V 42.993 h -0.942 v 0.85 c 0,2.765 -0.755,4.932 -2.264,6.505 -1.508,1.57 -3.614,2.388 -6.317,2.451 H -24.513 V 29.888 h 10.748 c 2.136,0.062 3.866,0.786 5.186,2.169 1.319,1.382 1.98,3.142 1.98,5.279 v 0.661 h 0.942 V 18.008 h -0.942 v 0.661 c 0,2.954 -1.101,5.091 -3.3,6.41 -1.131,0.692 -2.39,1.038 -3.772,1.038 H -24.513 V 3.772 h 11.314 c 3.896,0.062 7.213,1.272 9.947,3.63 2.734,2.356 4.729,5.671 5.987,9.946 h 0.848 z" />
          </g>
          <g
             transform="translate(492.513,133.2119)"
             id="g3856">
            <path
               inkscape:connector-curvature="0"
               id="path3858"
               style="fill:#331742;fill-opacity:1;fill-rule:nonzero;stroke:none"
               d="m 0,0 h -1.227 c -1.634,0 -3.19,-0.44 -4.667,-1.319 -1.478,-0.882 -2.687,-1.98 -3.63,-3.301 l -16.782,-25.834 v -19.234 c 0.062,-1.383 0.597,-2.562 1.603,-3.535 1.004,-0.975 2.263,-1.461 3.772,-1.461 h 1.036 v -0.943 h -26.399 v 0.943 h 1.131 c 1.446,0 2.671,0.486 3.678,1.461 1.004,0.973 1.539,2.152 1.603,3.535 v 19.234 L -56.571,-4.62 c -0.881,1.383 -2.06,2.499 -3.536,3.348 C -61.584,-0.424 -63.171,0 -64.868,0 H -66 v 0.943 h 28.663 V 0 h -1.038 c -1.194,0 -2.059,-0.394 -2.592,-1.179 -0.534,-0.786 -0.802,-1.446 -0.802,-1.98 0,-0.534 0.125,-1.022 0.377,-1.461 l 12.54,-21.684 12.728,21.684 c 0.189,0.439 0.284,0.927 0.284,1.461 0,0.534 -0.269,1.194 -0.802,1.98 C -17.176,-0.394 -18.041,0 -19.235,0 h -0.943 V 0.943 H 0 Z" />
          </g>
          <g
             transform="translate(86.1434,51.3496)"
             id="g3860">
            <path
               inkscape:connector-curvature="0"
               id="path3862"
               style="fill:#8560a9;fill-opacity:1;fill-rule:nonzero;stroke:none"
               d="m 0,0 c -1.969,1.869 -2.954,4.422 -2.954,7.66 0,3.237 0.985,5.791 2.954,7.66 1.969,1.87 4.656,2.804 8.061,2.804 1.379,0 2.77,-0.179 4.172,-0.535 1.401,-0.356 2.614,-0.845 3.638,-1.468 l 0.733,-4.74 h -0.3 c -0.956,3.827 -3.716,5.741 -8.278,5.741 -2.648,0 -4.738,-0.845 -6.274,-2.536 -1.535,-1.692 -2.303,-4.006 -2.303,-6.942 0,-1.914 0.344,-3.578 1.034,-4.99 0.69,-1.414 1.691,-2.51 3.005,-3.288 1.312,-0.78 2.837,-1.168 4.573,-1.168 1.735,0 3.253,0.26 4.556,0.783 1.301,0.523 2.38,1.386 3.237,2.588 0.856,1.202 1.34,2.691 1.451,4.472 h 0.302 L 17.239,1.468 C 16.371,0.133 15.113,-0.918 13.467,-1.686 11.821,-2.453 10.018,-2.837 8.061,-2.837 4.656,-2.815 1.969,-1.869 0,0" />
          </g>
          <g
             transform="translate(123.409,49.314)"
             id="g3864">
            <path
               inkscape:connector-curvature="0"
               id="path3866"
               style="fill:#8560a9;fill-opacity:1;fill-rule:nonzero;stroke:none"
               d="m 0,0 c 0.512,0 0.956,0.171 1.335,0.517 0.377,0.345 0.579,0.762 0.6,1.251 V 9.045 H -10.38 V 1.768 c 0.022,-0.489 0.221,-0.906 0.6,-1.251 C -9.401,0.171 -8.957,0 -8.445,0 h 0.401 v -0.334 h -6.809 V 0 h 0.401 c 0.534,0 0.985,0.178 1.351,0.534 0.367,0.356 0.561,0.778 0.584,1.268 v 15.754 c -0.023,0.489 -0.222,0.912 -0.6,1.269 -0.379,0.356 -0.824,0.533 -1.335,0.533 h -0.401 v 0.334 h 6.809 v -0.334 h -0.401 c -0.512,0 -0.956,-0.172 -1.335,-0.517 -0.379,-0.345 -0.578,-0.762 -0.6,-1.252 V 10.046 H 1.935 v 7.51 c 0,0.489 -0.143,0.868 -0.433,1.134 C 1.035,19.136 0.534,19.358 0,19.358 h -0.401 v 0.334 h 6.81 V 19.358 H 6.008 C 5.496,19.358 5.051,19.191 4.673,18.857 4.294,18.523 4.093,18.112 4.072,17.623 V 1.768 C 4.093,1.279 4.239,0.911 4.506,0.667 4.995,0.221 5.496,0 6.008,0 h 0.401 v -0.334 h -6.81 V 0 Z" />
          </g>
          <g
             transform="translate(135.5911,49.314)"
             id="g3868">
            <path
               inkscape:connector-curvature="0"
               id="path3870"
               style="fill:#8560a9;fill-opacity:1;fill-rule:nonzero;stroke:none"
               d="M 0,0 C 0.601,0 1.123,0.178 1.569,0.534 2.013,0.89 2.235,1.312 2.235,1.802 v 15.754 c 0,0.489 -0.222,0.912 -0.666,1.269 -0.446,0.356 -0.98,0.533 -1.603,0.533 h -0.433 v 0.334 H 7.076 V 19.358 H 6.641 c -0.6,0 -1.118,-0.167 -1.551,-0.501 C 4.656,18.523 4.417,18.112 4.372,17.623 V 1.768 C 4.394,1.279 4.627,0.862 5.073,0.517 5.518,0.171 6.041,0 6.641,0 H 7.076 L 7.108,-0.334 H -0.467 V 0 Z" />
          </g>
          <g
             transform="translate(154.2479,67.9717)"
             id="g3872">
            <path
               inkscape:connector-curvature="0"
               id="path3874"
               style="fill:#8560a9;fill-opacity:1;fill-rule:nonzero;stroke:none"
               d="m 0,0 h -1.769 v -16.855 c 0.022,-0.69 0.334,-1.213 0.935,-1.569 0.289,-0.157 0.611,-0.234 0.968,-0.234 h 0.433 l 0.035,-0.334 h -6.843 v 0.334 h 0.468 c 0.51,0 0.95,0.171 1.317,0.517 0.368,0.346 0.551,0.763 0.551,1.251 v 15.855 c 0,0.489 -0.183,0.901 -0.551,1.235 -0.367,0.334 -0.807,0.501 -1.317,0.501 h -0.468 v 0.334 h 8.377 c 2.092,0 3.744,-0.479 4.957,-1.436 1.213,-0.957 1.819,-2.215 1.819,-3.771 0,-1.558 -0.489,-2.86 -1.468,-3.906 -0.98,-1.046 -2.226,-1.646 -3.739,-1.802 0.712,-0.311 1.568,-1.179 2.571,-2.604 -0.024,0 0.361,-0.489 1.151,-1.468 0.789,-0.979 1.424,-1.741 1.902,-2.286 0.479,-0.546 0.873,-0.963 1.185,-1.252 0.823,-0.78 1.769,-1.168 2.838,-1.168 v -0.334 h -1.036 c -1.758,0 -3.137,0.345 -4.138,1.035 -0.758,0.512 -1.448,1.146 -2.07,1.903 -0.134,0.178 -0.695,0.961 -1.685,2.352 -0.991,1.39 -1.518,2.131 -1.586,2.221 -1.201,1.489 -2.325,2.235 -3.371,2.235 v 0.334 c 2.604,0 4.172,0.133 4.706,0.401 0.735,0.377 1.236,0.778 1.502,1.201 0.557,0.89 0.835,1.87 0.835,2.937 0,1.356 -0.401,2.404 -1.202,3.137 C 4.506,-0.501 3.426,-0.101 2.07,-0.034 1.469,-0.012 0.779,0 0,0" />
          </g>
          <g
             transform="translate(174.2581,52.167)"
             id="g3876">
            <path
               inkscape:connector-curvature="0"
               id="path3878"
               style="fill:#8560a9;fill-opacity:1;fill-rule:nonzero;stroke:none"
               d="m 0,0 c 1.68,-1.77 3.766,-2.653 6.258,-2.653 2.492,0 4.584,0.883 6.275,2.653 1.691,1.77 2.537,4.045 2.537,6.826 0,2.781 -0.846,5.056 -2.537,6.826 C 10.842,15.42 8.75,16.305 6.258,16.305 3.766,16.305 1.68,15.42 0,13.652 -1.68,11.882 -2.521,9.607 -2.521,6.826 -2.521,4.045 -1.68,1.77 0,0 m 0.618,15.988 c 1.713,0.879 3.599,1.319 5.656,1.319 2.058,0 3.945,-0.44 5.659,-1.319 1.712,-0.88 3.076,-2.12 4.088,-3.721 1.013,-1.603 1.519,-3.417 1.519,-5.441 0,-2.025 -0.506,-3.838 -1.519,-5.44 -1.012,-1.603 -2.376,-2.843 -4.088,-3.722 -1.714,-0.878 -3.472,-1.318 -5.274,-1.318 -1.802,0 -3.394,0.255 -4.774,0.767 -1.38,0.512 -2.575,1.223 -3.587,2.136 -1.013,0.913 -1.814,2.025 -2.403,3.338 -0.59,1.312 -0.885,2.854 -0.885,4.622 0,1.77 0.506,3.455 1.519,5.058 1.012,1.601 2.375,2.841 4.089,3.721" />
          </g>
          <g
             transform="translate(202.2449,58.4595)"
             id="g3880">
            <path
               inkscape:connector-curvature="0"
               id="path3882"
               style="fill:#8560a9;fill-opacity:1;fill-rule:nonzero;stroke:none"
               d="m 0,0 c 0.512,-0.135 0.979,-0.201 1.401,-0.201 0.423,0 0.768,0.011 1.036,0.034 0.267,0.021 0.645,0.094 1.135,0.216 0.489,0.122 0.934,0.318 1.335,0.585 0.934,0.577 1.623,1.49 2.068,2.737 0.156,0.444 0.234,1.046 0.234,1.802 0,1.357 -0.467,2.424 -1.402,3.204 C 4.873,9.155 3.583,9.545 1.936,9.545 H -1.302 V -7.343 c 0.023,-0.714 0.344,-1.235 0.968,-1.569 0.289,-0.156 0.612,-0.234 0.968,-0.234 H 1.102 V -9.48 h -6.909 v 0.334 h 0.467 c 0.534,0 0.985,0.171 1.351,0.518 0.367,0.345 0.562,0.762 0.584,1.251 v 15.82 c -0.022,0.513 -0.217,0.935 -0.584,1.269 -0.366,0.334 -0.817,0.501 -1.351,0.501 h -0.467 v 0.334 h 7.809 c 2.337,0 4.19,-0.512 5.557,-1.536 C 8.928,7.987 9.613,6.608 9.613,4.873 9.613,3.626 9.323,2.536 8.745,1.601 7.609,-0.223 5.852,-1.135 3.471,-1.135 2.291,-1.135 1.134,-0.868 0,-0.334 Z" />
          </g>
          <g
             transform="translate(222.804,67.9717)"
             id="g3884">
            <path
               inkscape:connector-curvature="0"
               id="path3886"
               style="fill:#8560a9;fill-opacity:1;fill-rule:nonzero;stroke:none"
               d="m 0,0 h -1.768 v -16.855 c 0.021,-0.69 0.334,-1.213 0.934,-1.569 0.29,-0.157 0.611,-0.234 0.969,-0.234 h 0.433 l 0.034,-0.334 H -6.24 v 0.334 h 0.467 c 0.51,0 0.95,0.171 1.317,0.517 0.368,0.346 0.552,0.763 0.552,1.251 v 15.855 c 0,0.489 -0.184,0.901 -0.552,1.235 -0.367,0.334 -0.807,0.501 -1.317,0.501 H -6.24 v 0.334 h 8.376 c 2.092,0 3.745,-0.479 4.958,-1.436 1.212,-0.957 1.818,-2.215 1.818,-3.771 0,-1.558 -0.489,-2.86 -1.468,-3.906 -0.979,-1.046 -2.226,-1.646 -3.739,-1.802 0.712,-0.311 1.568,-1.179 2.571,-2.604 -0.023,0 0.361,-0.489 1.152,-1.468 0.789,-0.979 1.423,-1.741 1.901,-2.286 0.48,-0.546 0.873,-0.963 1.186,-1.252 0.823,-0.78 1.768,-1.168 2.837,-1.168 v -0.334 h -1.035 c -1.759,0 -3.137,0.345 -4.138,1.035 -0.758,0.512 -1.448,1.146 -2.07,1.903 -0.134,0.178 -0.695,0.961 -1.686,2.352 -0.991,1.39 -1.518,2.131 -1.586,2.221 -1.2,1.489 -2.325,2.235 -3.371,2.235 v 0.334 c 2.604,0 4.173,0.133 4.706,0.401 0.735,0.377 1.236,0.778 1.502,1.201 0.557,0.89 0.836,1.87 0.836,2.937 0,1.356 -0.401,2.404 -1.202,3.137 C 4.506,-0.501 3.427,-0.101 2.07,-0.034 1.47,-0.012 0.78,0 0,0" />
          </g>
          <g
             transform="translate(244.3656,56.7563)"
             id="g3888">
            <path
               inkscape:connector-curvature="0"
               id="path3890"
               style="fill:#8560a9;fill-opacity:1;fill-rule:nonzero;stroke:none"
               d="M 0,0 H 7.609 L 3.871,9.146 Z m 14.985,-7.442 h 0.268 V -7.777 H 8.411 v 0.335 h 0.266 c 0.423,0 0.746,0.144 0.969,0.433 0.222,0.289 0.333,0.562 0.333,0.817 0,0.257 -0.044,0.507 -0.134,0.752 L 8.01,-1.001 H -0.435 L -2.271,-5.34 c -0.111,-0.289 -0.167,-0.562 -0.167,-0.818 0,-0.257 0.112,-0.533 0.334,-0.834 0.223,-0.301 0.557,-0.45 1.002,-0.45 h 0.267 V -7.777 H -7.21 v 0.335 h 0.267 c 0.467,0 0.94,0.16 1.418,0.483 0.478,0.322 0.874,0.807 1.186,1.452 4.873,10.414 7.41,15.865 7.61,16.354 0.377,0.936 0.578,1.558 0.6,1.87 h 0.301 l 8.244,-18.224 c 0.645,-1.29 1.502,-1.935 2.569,-1.935" />
          </g>
          <g
             transform="translate(265.2425,51.3496)"
             id="g3892">
            <path
               inkscape:connector-curvature="0"
               id="path3894"
               style="fill:#8560a9;fill-opacity:1;fill-rule:nonzero;stroke:none"
               d="m 0,0 c -1.969,1.869 -2.954,4.422 -2.954,7.66 0,3.237 0.985,5.791 2.954,7.66 1.969,1.87 4.656,2.804 8.061,2.804 1.379,0 2.77,-0.179 4.171,-0.535 1.402,-0.356 2.615,-0.845 3.639,-1.468 l 0.733,-4.74 h -0.3 c -0.956,3.827 -3.716,5.741 -8.278,5.741 -2.648,0 -4.738,-0.845 -6.274,-2.536 -1.535,-1.692 -2.303,-4.006 -2.303,-6.942 0,-1.914 0.344,-3.578 1.034,-4.99 0.69,-1.414 1.691,-2.51 3.005,-3.288 1.312,-0.78 2.837,-1.168 4.573,-1.168 1.735,0 3.253,0.26 4.556,0.783 1.301,0.523 2.38,1.386 3.237,2.588 0.856,1.202 1.34,2.691 1.451,4.472 h 0.302 L 17.239,1.468 C 16.371,0.133 15.113,-0.918 13.467,-1.686 11.821,-2.453 10.018,-2.837 8.061,-2.837 4.656,-2.815 1.969,-1.869 0,0" />
          </g>
          <g
             transform="translate(296.5663,68.0381)"
             id="g3896">
            <path
               inkscape:connector-curvature="0"
               id="path3898"
               style="fill:#8560a9;fill-opacity:1;fill-rule:nonzero;stroke:none"
               d="m 0,0 v -16.956 c 0.023,-0.69 0.356,-1.201 1.002,-1.535 0.288,-0.156 0.611,-0.233 0.967,-0.233 h 0.368 v -0.335 h -6.876 v 0.335 h 0.401 c 0.534,0 0.99,0.178 1.369,0.534 0.377,0.356 0.579,0.778 0.6,1.268 L -2.169,0 H -8.21 c -0.512,0 -0.918,-0.167 -1.218,-0.501 -0.3,-0.334 -0.451,-0.733 -0.451,-1.201 v -0.535 h -0.367 V 1.535 C -9.802,1.357 -9.173,1.224 -8.36,1.134 -7.548,1.046 -6.941,1.001 -6.541,1.001 h 10.88 c 1.603,0 2.848,0.178 3.739,0.534 V -2.237 H 7.711 v 0.535 c 0,0.468 -0.156,0.867 -0.468,1.201 C 6.932,-0.167 6.531,0 6.042,0 Z" />
          </g>
          <g
             transform="translate(309.0838,49.314)"
             id="g3900">
            <path
               inkscape:connector-curvature="0"
               id="path3902"
               style="fill:#8560a9;fill-opacity:1;fill-rule:nonzero;stroke:none"
               d="M 0,0 C 0.601,0 1.124,0.178 1.569,0.534 2.013,0.89 2.236,1.312 2.236,1.802 v 15.754 c 0,0.489 -0.223,0.912 -0.667,1.269 -0.445,0.356 -0.979,0.533 -1.603,0.533 h -0.433 v 0.334 H 7.076 V 19.358 H 6.642 C 6.041,19.358 5.523,19.191 5.09,18.857 4.656,18.523 4.417,18.112 4.372,17.623 V 1.768 C 4.394,1.279 4.627,0.862 5.073,0.517 5.518,0.171 6.041,0 6.642,0 H 7.076 L 7.108,-0.334 H -0.467 V 0 Z" />
          </g>
          <g
             transform="translate(323.787,51.3496)"
             id="g3904">
            <path
               inkscape:connector-curvature="0"
               id="path3906"
               style="fill:#8560a9;fill-opacity:1;fill-rule:nonzero;stroke:none"
               d="m 0,0 c -1.969,1.869 -2.954,4.422 -2.954,7.66 0,3.237 0.985,5.791 2.954,7.66 1.969,1.87 4.656,2.804 8.061,2.804 1.379,0 2.77,-0.179 4.171,-0.535 1.402,-0.356 2.615,-0.845 3.639,-1.468 l 0.733,-4.74 h -0.3 c -0.956,3.827 -3.716,5.741 -8.278,5.741 -2.648,0 -4.738,-0.845 -6.274,-2.536 -1.535,-1.692 -2.303,-4.006 -2.303,-6.942 0,-1.914 0.344,-3.578 1.034,-4.99 0.69,-1.414 1.691,-2.51 3.005,-3.288 1.312,-0.78 2.837,-1.168 4.573,-1.168 1.735,0 3.253,0.26 4.556,0.783 1.301,0.523 2.38,1.386 3.237,2.588 0.856,1.202 1.34,2.691 1.451,4.472 h 0.301 L 17.239,1.468 C 16.371,0.133 15.113,-0.918 13.467,-1.686 11.821,-2.453 10.018,-2.837 8.061,-2.837 4.656,-2.815 1.969,-1.869 0,0" />
          </g>
          <g
             transform="translate(358.9989,51.3496)"
             id="g3908">
            <path
               inkscape:connector-curvature="0"
               id="path3910"
               style="fill:#8560a9;fill-opacity:1;fill-rule:nonzero;stroke:none"
               d="m 0,0 c -1.969,1.869 -2.954,4.422 -2.954,7.66 0,3.237 0.985,5.791 2.954,7.66 1.969,1.87 4.656,2.804 8.061,2.804 1.379,0 2.77,-0.179 4.171,-0.535 1.402,-0.356 2.615,-0.845 3.639,-1.468 l 0.733,-4.74 h -0.3 c -0.956,3.827 -3.716,5.741 -8.278,5.741 -2.648,0 -4.738,-0.845 -6.274,-2.536 -1.535,-1.692 -2.303,-4.006 -2.303,-6.942 0,-1.914 0.344,-3.578 1.034,-4.99 0.69,-1.414 1.691,-2.51 3.005,-3.288 1.312,-0.78 2.837,-1.168 4.573,-1.168 1.735,0 3.253,0.26 4.556,0.783 1.301,0.523 2.38,1.386 3.237,2.588 0.856,1.202 1.34,2.691 1.451,4.472 h 0.301 L 17.239,1.468 C 16.371,0.133 15.113,-0.918 13.467,-1.686 11.821,-2.453 10.018,-2.837 8.061,-2.837 4.656,-2.815 1.969,-1.869 0,0" />
          </g>
          <g
             transform="translate(381.8792,49.314)"
             id="g3912">
            <path
               inkscape:connector-curvature="0"
               id="path3914"
               style="fill:#8560a9;fill-opacity:1;fill-rule:nonzero;stroke:none"
               d="m 0,0 c 0.534,0 0.984,0.171 1.351,0.517 0.367,0.345 0.563,0.762 0.584,1.251 v 15.788 c -0.021,0.489 -0.228,0.912 -0.618,1.269 -0.388,0.356 -0.85,0.533 -1.384,0.533 h -0.4 v 0.334 h 6.908 v -0.334 h -0.4 C 5.507,19.358 5.045,19.181 4.655,18.825 4.266,18.468 4.071,18.045 4.071,17.556 V 0.701 h 5.207 c 1.023,0 1.891,0.177 2.604,0.533 0.712,0.356 1.251,0.779 1.619,1.269 0.367,0.489 0.728,1.135 1.083,1.935 h 0.335 L 13.084,-0.334 H -0.467 V 0 Z" />
          </g>
          <g
             transform="translate(400.639,49.314)"
             id="g3916">
            <path
               inkscape:connector-curvature="0"
               id="path3918"
               style="fill:#8560a9;fill-opacity:1;fill-rule:nonzero;stroke:none"
               d="M 0,0 C 0.6,0 1.123,0.178 1.568,0.534 2.013,0.89 2.235,1.312 2.235,1.802 v 15.754 c 0,0.489 -0.222,0.912 -0.667,1.269 -0.445,0.356 -0.979,0.533 -1.602,0.533 h -0.433 v 0.334 H 7.076 V 19.358 H 6.641 c -0.6,0 -1.118,-0.167 -1.551,-0.501 C 4.655,18.523 4.417,18.112 4.372,17.623 V 1.768 C 4.394,1.279 4.627,0.862 5.072,0.517 5.518,0.171 6.041,0 6.641,0 H 7.076 L 7.108,-0.334 H -0.467 V 0 Z" />
          </g>
          <g
             transform="translate(435.4842,68.6724)"
             id="g3920">
            <path
               inkscape:connector-curvature="0"
               id="path3922"
               style="fill:#8560a9;fill-opacity:1;fill-rule:nonzero;stroke:none"
               d="m 0,0 c -0.49,0 -0.913,-0.162 -1.269,-0.485 -0.356,-0.322 -0.545,-0.717 -0.567,-1.184 v -14.218 c 0,-1.292 0.077,-2.515 0.233,-3.673 l 0.067,-0.6 h -0.3 l -17.356,16.455 v -13.918 c 0,-0.49 0.177,-0.901 0.534,-1.236 0.356,-0.332 0.789,-0.499 1.301,-0.499 h 0.568 v -0.335 h -6.309 v 0.335 h 0.568 c 0.512,0 0.945,0.167 1.301,0.499 0.356,0.335 0.535,0.746 0.535,1.236 v 14.285 c 0,1.357 -0.078,2.571 -0.233,3.638 l -0.068,0.534 0.368,-0.033 17.322,-16.322 V -1.669 C -3.349,-1.202 -3.55,-0.807 -3.906,-0.485 -4.262,-0.162 -4.685,0 -5.175,0 H -5.741 V 0.334 H 0.567 V 0 Z" />
          </g>
          <g
             transform="translate(441.1908,49.314)"
             id="g3924">
            <path
               inkscape:connector-curvature="0"
               id="path3926"
               style="fill:#8560a9;fill-opacity:1;fill-rule:nonzero;stroke:none"
               d="M 0,0 C 0.601,0 1.123,0.178 1.569,0.534 2.013,0.89 2.235,1.312 2.235,1.802 v 15.754 c 0,0.489 -0.222,0.912 -0.666,1.269 -0.446,0.356 -0.98,0.533 -1.603,0.533 h -0.433 v 0.334 H 7.076 V 19.358 H 6.641 c -0.6,0 -1.118,-0.167 -1.551,-0.501 C 4.656,18.523 4.417,18.112 4.372,17.623 V 1.768 C 4.394,1.279 4.627,0.862 5.073,0.517 5.518,0.171 6.041,0 6.641,0 H 7.076 L 7.108,-0.334 H -0.467 V 0 Z" />
          </g>
          <g
             transform="translate(455.8924,51.3496)"
             id="g3928">
            <path
               inkscape:connector-curvature="0"
               id="path3930"
               style="fill:#8560a9;fill-opacity:1;fill-rule:nonzero;stroke:none"
               d="m 0,0 c -1.969,1.869 -2.954,4.422 -2.954,7.66 0,3.237 0.985,5.791 2.954,7.66 1.969,1.87 4.656,2.804 8.061,2.804 1.379,0 2.77,-0.179 4.171,-0.535 1.402,-0.356 2.615,-0.845 3.639,-1.468 l 0.733,-4.74 h -0.3 c -0.956,3.827 -3.716,5.741 -8.278,5.741 -2.648,0 -4.738,-0.845 -6.274,-2.536 -1.535,-1.692 -2.303,-4.006 -2.303,-6.942 0,-1.914 0.344,-3.578 1.034,-4.99 0.69,-1.414 1.691,-2.51 3.005,-3.288 1.312,-0.78 2.837,-1.168 4.573,-1.168 1.735,0 3.253,0.26 4.556,0.783 1.301,0.523 2.38,1.386 3.237,2.588 0.856,1.202 1.34,2.691 1.451,4.472 h 0.302 L 17.239,1.468 C 16.371,0.133 15.113,-0.918 13.467,-1.686 11.821,-2.453 10.018,-2.837 8.061,-2.837 4.656,-2.815 1.969,-1.869 0,0" />
          </g>
        </g>
      </g>
    </g>
  </g>
</svg>
